<svg xmlns="http://www.w3.org/2000/svg" viewBox="0 0 500 500"><g id="freepik--background-simple--inject-9"><g><path d="M477.96,231.03c-3.05-59.89-28.03-119.62-73.05-160.01C334.12,7.52,196.23,8.88,123.58,68.62c-25.2,20.72-40.03,48.1-45.83,79.86-6.2,33.99,1.91,70.92-11.43,103.66-11.46,28.11-39.71,45.35-50.18,73.79-12.5,33.96-5.82,77.1,21.32,102.34,34.76,32.33,96.8,44.79,142.51,49.5,139.61,14.39,286.81-66.71,297.72-218.28,.68-9.46,.77-18.97,.29-28.44Z" style="fill:#F58633;"></path><path d="M477.96,231.03c-3.05-59.89-28.03-119.62-73.05-160.01C334.12,7.52,196.23,8.88,123.58,68.62c-25.2,20.72-40.03,48.1-45.83,79.86-6.2,33.99,1.91,70.92-11.43,103.66-11.46,28.11-39.71,45.35-50.18,73.79-12.5,33.96-5.82,77.1,21.32,102.34,34.76,32.33,96.8,44.79,142.51,49.5,139.61,14.39,286.81-66.71,297.72-218.28,.68-9.46,.77-18.97,.29-28.44Z" style="fill:#fff; opacity:.7;"></path></g></g><g id="freepik--City--inject-9"><g><polyline points="401.66 190.36 401.66 84.17 412.92 84.17 412.92 73.22 446.71 73.22 446.71 81.98 455.56 81.98 455.56 263.71 479.7 263.71 479.7 295.46 494.98 295.46" style="fill:none; stroke:#263238; stroke-miterlimit:10;"></polyline><polyline points="292.25 204.59 292.25 122.48 315.58 122.48 315.58 142.19 326.84 142.19 326.84 113.73 351.78 113.73 351.78 236.34 372.7 236.34 372.7 280.13 389.59 280.13 389.59 212.26 401.66 212.26 401.66 198.02" style="fill:none; stroke:#263238; stroke-miterlimit:10;"></polyline><polyline points="204.56 149.85 204.56 295.46 218.23 295.46 218.23 210.07 237.54 210.07 237.54 282.32 292.25 282.32 292.25 217.73" style="fill:none; stroke:#263238; stroke-miterlimit:10;"></polyline><polyline points="161.92 257.14 161.92 77.6 204.56 77.6 204.56 137.81" style="fill:none; stroke:#263238; stroke-miterlimit:10;"></polyline><polyline points="79.06 204.59 79.06 225.39 91.12 225.39 91.12 131.24 139.39 131.24 139.39 276.85 161.92 276.85 161.92 262.62" style="fill:none; stroke:#263238; stroke-miterlimit:10;"></polyline><polyline points="26.76 295.46 44.46 295.46 44.46 159.71 79.06 159.71 79.06 193.64" style="fill:none; stroke:#263238; stroke-miterlimit:10;"></polyline></g></g><g id="freepik--Clouds--inject-9"><g><path d="M454.26,37.28s-6.44-12.87-18.5-11.26c-12.07,1.61-13.68,13.68-16.89,14.48s-10.46-4.02-15.29-1.61c-4.83,2.41-8.04,8.04-8.04,8.04,0,0-6.44-2.41-11.26,0s-7.24,7.24-7.24,7.24h100.56s-.8-12.87-8.04-15.29c-7.24-2.41-12.07,4.83-15.29-1.61Z" style="fill:none; stroke:#263238; stroke-miterlimit:10;"></path><path d="M315.86,83.52s-4.76-9.51-13.68-8.33c-8.92,1.19-10.11,10.11-12.49,10.7-2.38,.59-7.73-2.97-11.3-1.19-3.57,1.78-5.95,5.95-5.95,5.95,0,0-4.76-1.78-8.33,0-3.57,1.78-5.35,5.35-5.35,5.35h74.34s-.59-9.51-5.95-11.3c-5.35-1.78-8.92,3.57-11.3-1.19Z" style="fill:none; stroke:#263238; stroke-miterlimit:10;"></path><path d="M64.02,49.26s-4.02-8.03-11.55-7.03c-7.53,1-8.54,8.54-10.55,9.04-2.01,.5-6.53-2.51-9.54-1-3.01,1.51-5.02,5.02-5.02,5.02,0,0-4.02-1.51-7.03,0-3.01,1.51-4.52,4.52-4.52,4.52h62.77s-.5-8.03-5.02-9.54c-4.52-1.51-7.53,3.01-9.54-1Z" style="fill:none; stroke:#263238; stroke-miterlimit:10;"></path></g></g><g id="freepik--Cone--inject-9"><g><path d="M431.98,331.32l-19.3,70.32h42.11l-19.3-70.32c-.49-1.78-3.02-1.78-3.51,0Z" style="fill:#fff; stroke:#263238; stroke-miterlimit:10;"></path><polygon points="412.68 401.64 448.77 401.64 430.73 335.89 412.68 401.64" style="fill:#263238; stroke:#263238; stroke-miterlimit:10;"></polygon><polygon points="420.39 373.56 447.08 373.56 443.49 360.46 423.98 360.46 420.39 373.56" style="fill:#fff; stroke:#263238; stroke-miterlimit:10;"></polygon><path d="M459.75,400.46h-52.04c-1.56,0-2.83,1.27-2.83,2.83h0c0,1.56,1.27,2.83,2.83,2.83h52.04c1.56,0,2.83-1.27,2.83-2.83h0c0-1.56-1.27-2.83-2.83-2.83Z" style="fill:#fff; stroke:#263238; stroke-miterlimit:10;"></path><path d="M447.01,403.29c0-1.56-1.27-2.83-2.83-2.83h-36.46c-1.56,0-2.83,1.27-2.83,2.83s1.27,2.83,2.83,2.83h36.46c1.56,0,2.83-1.27,2.83-2.83Z" style="fill:#263238; stroke:#263238; stroke-miterlimit:10;"></path></g></g><g id="freepik--Wheelbarrow--inject-9"><g><path d="M93.08,406.01c-.11,0-.22-.01-.33-.02-3.29-.26-6.17-2.16-7.7-5.09l-41.28-78.57-4.95-.79c-1.09-.17-1.83-1.2-1.66-2.29,.17-1.09,1.19-1.84,2.29-1.66l5.94,.95c.62,.1,1.16,.49,1.45,1.05l41.75,79.45c.89,1.7,2.57,2.81,4.48,2.96,2.59,.19,5.02-1.45,5.77-3.94l9.1-30.16c.15-.51,.5-.94,.97-1.19,.47-.25,1.02-.3,1.53-.15l59.78,18.21-19.31-37.52c-.51-.98-.12-2.19,.86-2.69,.98-.51,2.19-.12,2.69,.86l21.48,41.73c.37,.71,.27,1.58-.24,2.2s-1.35,.87-2.12,.63l-62.39-19.01-8.52,28.24c-1.26,4.18-5.26,6.99-9.6,6.79Z" style="fill:#fff; stroke:#263238; stroke-miterlimit:10;"></path><path d="M38.98,323.06c-.11,0-.21-.01-.32-.03l-19.76-2.7c-1.91-.26-3.26-2.03-2.99-3.94,.26-1.91,2.02-3.26,3.94-2.99l19.76,2.7c1.91,.26,3.26,2.03,2.99,3.94-.25,1.81-1.84,3.1-3.62,3.02Z" style="fill:#263238; stroke:#263238; stroke-miterlimit:10;"></path><g><path d="M191.84,388.88c.45-9.76-7.11-18.04-16.87-18.49-9.76-.45-18.04,7.11-18.49,16.87s7.11,18.04,16.87,18.49c9.76,.45,18.04-7.11,18.49-16.87Z" style="fill:#263238; stroke:#263238; stroke-miterlimit:10;"></path><circle cx="174.16" cy="388.08" r="7.3" transform="translate(-195.25 177.19) rotate(-36.11)" style="fill:#fff; stroke:#263238; stroke-miterlimit:10;"></circle></g><path d="M66.6,322.57s38.89-21.26,48.1-21.19c9.21,.07,42.41,25.68,42.41,25.68l-90.51-4.49Z" style="fill:#263238; stroke:#263238; stroke-miterlimit:10;"></path><polygon points="60.35 319.8 72.36 367.12 142.02 370.31 169.97 324.81 60.35 319.8" style="fill:#fff; stroke:#263238; stroke-miterlimit:10;"></polygon></g></g><g id="freepik--Floor--inject-9"><line x1="22.4" y1="406.43" x2="479.75" y2="406.43" style="fill:none; stroke:#263238; stroke-miterlimit:10;"></line></g><g id="freepik--Character_2--inject-9"><g><path d="M268.71,375.63l-1.36,28.38s-2.5,4.77-3.63,6.36c-1.14,1.59-6.13,2.27-7.95,5.22-1.82,2.95-1.14,6.81-1.14,6.81,0,0,1.59,1.82,5.68,1.82h12.03c2.72,0,5.45-.68,6.58-.91s3.86-.91,4.54-1.82c.68-.91,1.82-4.09,1.59-8.17-.23-4.09-1.82-7.72-1.82-9.99s7.72-25.65,7.72-25.65l-22.25-2.04Z" style="fill:#263238; stroke:#263238; stroke-miterlimit:10;"></path><path d="M387.67,374.95s0,27.24,.23,27.92c.23,.68,7.26,5.68,7.26,5.68,0,0,11.58,1.82,12.94,3.41s1.82,4.99,1.36,6.13-11.35,2.5-15.21,2.5-8.63-.91-8.63-.91c0,0-2.04-1.14-3.41-.45l-1.36,.68h-10.44s-1.82-6.13-1.82-10.22,1.36-8.85,1.36-8.85l-1.82-22.25,19.52-3.63Z" style="fill:#263238; stroke:#263238; stroke-miterlimit:10;"></path><path d="M289.61,262.64s-7.64,19.1-7.32,25.15c.32,6.05-2.55,43.94-2.55,43.94,0,0-7.64,15.92-9.55,24.84-1.91,8.92-3.18,18.79-2.23,21.65s13.69,5.41,19.42,4.14c5.73-1.27,9.23-5.41,9.55-6.37,.32-.96,3.5-11.78,3.82-17.19s.32-12.42,.32-12.42c0,0,5.41-10.83,7-16.24,1.59-5.41,17.51-25.15,17.51-25.15l33.11,42.03s6.37,16.88,6.37,20.38-.64,10.83,3.18,13.05c3.82,2.23,11.78,1.59,15.92,.32,4.14-1.27,7.32-4.14,8.28-12.42,.96-8.28-1.59-10.51-1.59-19.74s-7.64-41.07-14.01-49.35c-6.37-8.28-15.92-19.42-15.92-19.42,0,0-24.97,7.64-33.18,4.62-8.21-3.02-38.14-21.81-38.14-21.81Z" style="fill:#263238; stroke:#263238; stroke-miterlimit:10;"></path><g><path d="M382.96,266.04s-2.45,10.22-2.45,16.77-.41,33.13-.41,34.97-3.27,8.18-4.5,10.02c-1.23,1.84,.82,5.52,.82,5.52,0,0,4.5,4.5,5.93,5.32,1.43,.82,4.7,.82,5.73-.41,1.02-1.23,5.52-5.32,5.73-7.16s-3.88-11.66-3.88-12.88,8.79-34.15,8.79-39.87,.2-13.9,.2-13.9l-15.95,1.64Z" style="fill:#fff; stroke:#263238; stroke-miterlimit:10;"></path><path d="M388.07,338.23c1.02-1.23,5.52-5.32,5.73-7.16,.2-1.84-3.89-11.66-3.89-12.88,0-.2,.23-1.2,.6-2.77l-10.38-.68c-.02,1.62-.03,2.72-.03,3.04,0,1.84-3.27,8.18-4.5,10.02-1.23,1.84,.82,5.52,.82,5.52,0,0,4.5,4.5,5.93,5.32,1.43,.82,4.7,.82,5.73-.41Z" style="fill:#F58633; stroke:#263238; stroke-miterlimit:10;"></path></g><g><path d="M403.61,216.77s.82,5.32,.61,12.06c-.2,6.75-.61,12.68-.61,12.68l2.25,23.51s-12.47,3.89-17.38,3.89-7.57-1.43-7.57-1.43v-15.34s4.29-8.79,7.16-15.74c2.86-6.95,9.81-20.45,10.22-21.27,.41-.82,5.32,1.64,5.32,1.64Z" style="fill:#a1a1a1; stroke:#263238; stroke-miterlimit:10;"></path><path d="M387.25,245.39s9-1.84,13.29-7.77" style="fill:none; stroke:#263238; stroke-miterlimit:10;"></path><path d="M400.34,241.71s-2.66,2.25-8.79,3.68" style="fill:none; stroke:#263238; stroke-miterlimit:10;"></path></g><path d="M379.28,185.28s-15.95-2.86-24.74-5.32c-8.79-2.45-14.11-3.07-17.59-1.23-3.48,1.84-24.54,41.51-26.17,43.76-1.64,2.25-14.72,16.97-18.2,25.97-3.48,9-5.93,19.83-5.93,19.83,0,0,23.51,26.38,35.17,27.81l3.68,.41,7.57-10.63,.2,9.61s5.32-1.02,13.9-4.91c8.59-3.89,17.99-10.02,18.2-11.04s-2.25-2.66-2.25-2.66c0,0,5.73-9.41,8.38-11.66,2.66-2.25,15.13-18.2,15.13-18.2,0,0,13.29-20.65,13.7-28.42,.41-7.77,1.64-18.4-1.02-22.29s-20.04-11.04-20.04-11.04Z" style="fill:#F58633; stroke:#263238; stroke-miterlimit:10;"></path><g><path d="M365.37,279.54c.2-1.02-2.25-2.66-2.25-2.66,0,0,1.42-2.33,3.17-4.95-10.02,1.18-23.65,1.72-34.8-1.68-11.25-3.44-24.23-18.8-33.27-31.66-2.31,3.33-4.34,6.67-5.49,9.49,9.31,12.67,22.64,27.69,35.84,31.73,7.41,2.26,15.57,3.04,23.26,3.04,3.46,0,6.82-.16,9.98-.4,2.12-1.43,3.49-2.52,3.56-2.9Z" style="fill:#fff; stroke:#263238; stroke-miterlimit:10;"></path><path d="M351.41,248.04c-12.31-5.39-26.66-25.1-34.18-36.98-2.38,4.28-4.37,7.87-5.51,9.86,7.92,11.89,21.82,30.22,35.68,36.29,5.38,2.35,13.29,3.53,23.65,3.53,1.48,0,3.01-.03,4.59-.08,2.79-3.31,6.23-7.61,8.51-10.49-13.12,1.02-25.87,.88-32.75-2.12Z" style="fill:#fff; stroke:#263238; stroke-miterlimit:10;"></path></g><g><path d="M405.66,424.79c-.5,0-.99-.25-1.28-.71l-27.4-44.37c-.44-.71-.22-1.63,.49-2.06,.7-.43,1.63-.22,2.06,.49l27.4,44.37c.44,.71,.22,1.63-.49,2.06-.25,.15-.52,.22-.79,.22Z" style="fill:#fff; stroke:#263238; stroke-miterlimit:10;"></path><g><path d="M314.25,293.44s-4.5,5.11-4.29,7.16c.2,2.04,11.86,28.83,13.7,30.26,1.84,1.43,7.36,2.25,7.36,2.25l8.79,11.86,21.47-12.88-26.58-43.76s-4.29-3.27-6.95-3.89c-2.66-.61-3.89-1.23-5.52,0-1.64,1.23-7.97,9-7.97,9Z" style="fill:#a1a1a1; stroke:#263238; stroke-miterlimit:10;"></path><path d="M339.81,344.97l35.61,35.61c1.25,1.25,3.26,1.33,4.61,.18h0c1.13-.97,1.5-2.57,.9-3.94l-19.64-44.73-21.47,12.88Z" style="fill:#a1a1a1; stroke:#263238; stroke-miterlimit:10;"></path><path d="M324.48,299.17s12.27,23.72,21.67,39.06" style="fill:none; stroke:#263238; stroke-miterlimit:10;"></path><path d="M331.02,333.11l-13.29-22.7s-1.02,1.23,1.23,6.13c2.25,4.91,5.93,9.81,5.93,9.81" style="fill:none; stroke:#263238; stroke-miterlimit:10;"></path><line x1="348.61" y1="353.97" x2="365.99" y2="343.34" style="fill:none; stroke:#263238; stroke-miterlimit:10;"></line><line x1="351.47" y1="357.04" x2="367.83" y2="347.43" style="fill:none; stroke:#263238; stroke-miterlimit:10;"></line><path d="M344.93,312.7c1.36,2.85,.77,5.98-1.32,6.97-2.09,1-4.89-.51-6.25-3.37-1.36-2.85-.77-5.98,1.32-6.97,2.09-1,4.89,.51,6.25,3.37Z" style="fill:#fff; stroke:#263238; stroke-miterlimit:10;"></path></g><path d="M367.77,351.34l10.65-22.56c1.29-2.72,4.75-3.57,7.15-1.76h0c2.07,1.56,2.5,4.5,.97,6.59l-14.74,20.13c-.82,1.11-2.41,1.29-3.45,.38h0c-.79-.69-1.03-1.83-.58-2.78Z" style="fill:#a1a1a1; stroke:#263238; stroke-miterlimit:10;"></path></g><g><path d="M303.62,211.04s-7.77,13.5-8.79,15.54c-1.02,2.04,14.52,47.64,14.52,47.64,0,0-1.43,11.86-1.43,13.5s5.32,5.11,6.34,5.73c1.02,.61,2.25,1.23,3.68,1.64,1.43,.41,5.73-.2,5.73-.2,0,0-2.25-6.54-1.43-8.59,.82-2.04,2.04-2.45,2.86-2.45s2.66,.61,2.66,.61c0,0,0-3.48-.61-5.32-.61-1.84-7.57-6.13-8.18-7.16-.61-1.02-7.57-41.92-7.57-41.92l1.84-3.89-9.61-15.13Z" style="fill:#fff; stroke:#263238; stroke-miterlimit:10;"></path><path d="M318.96,271.97c-.1-.17-.37-1.38-.74-3.29-3.16-.12-7.34,1.82-9.7,3.08,.53,1.56,.83,2.46,.83,2.46,0,0-1.43,11.86-1.43,13.5s5.32,5.11,6.34,5.73c1.02,.61,2.25,1.23,3.68,1.64,1.43,.41,5.73-.2,5.73-.2,0,0-2.25-6.54-1.43-8.59,.82-2.04,2.04-2.45,2.86-2.45s2.66,.61,2.66,.61c0,0,0-3.48-.61-5.32-.61-1.84-7.57-6.13-8.18-7.16Z" style="fill:#F58633; stroke:#263238; stroke-miterlimit:10;"></path></g><path d="M343.29,188.96s0-6.13-1.02-7.57c-2.71-3.79-3.27-3.48-5.32-2.66-2.04,.82-8.59,3.88-11.66,6.13-3.07,2.25-26.38,24.13-26.38,24.13l14.31,20.86,15.13-9.2s2.66-1.43,5.32-3.68c2.66-2.25,10.43-15.54,9.61-28.01Z" style="fill:#a1a1a1; stroke:#263238; stroke-miterlimit:10;"></path><g><line x1="389.97" y1="425.24" x2="415.66" y2="425.24" style="fill:none; stroke:#263238; stroke-miterlimit:10;"></line><polygon points="422.98 425.12 418.07 425.61 418.31 427.58 426.55 427.21 422.98 425.12" style="fill:none; stroke:#263238; stroke-miterlimit:10;"></polygon><path d="M429.62,423.89l2.46,1.84,6.52-.74,3.2-.74-1.84-1.6s-3.32-.74-3.69-.74-3.57,.25-3.57,.25l-3.07,1.72Z" style="fill:none; stroke:#263238; stroke-miterlimit:10;"></path><path d="M427.29,423.52l-1.97-2.34-3.44,1.6s2.95,1.6,3.44,1.72c.49,.12,1.97-.98,1.97-.98Z" style="fill:none; stroke:#263238; stroke-miterlimit:10;"></path><polygon points="421.02 420.81 415.61 420.81 414.26 422.41 418.44 423.03 421.02 420.81" style="fill:none; stroke:#263238; stroke-miterlimit:10;"></polygon><polygon points="411.92 421.43 408.97 421.31 407.99 422.78 411.3 423.03 411.92 421.43" style="fill:none; stroke:#263238; stroke-miterlimit:10;"></polygon></g><path d="M367.21,187.53s-3.27,6.95-3.89,21.06c-.61,14.11-.61,21.27-1.02,24.54-.41,3.27-1.02,9.61-1.02,9.61,0,0,9.41-8.18,13.5-13.7,4.09-5.52,5.11-14.72,5.11-14.72l4.7-14.72s2.04-4.7,1.64-6.13c-.41-1.43-7.16-5.11-12.47-5.73-5.32-.61-6.54-.2-6.54-.2Z" style="fill:#a1a1a1; stroke:#263238; stroke-miterlimit:10;"></path><path d="M379.28,185.28s-6.13-1.02-9.41,0c-3.27,1.02-4.5,7.97-4.5,13.29s2.04,14.72,3.48,17.18c1.43,2.45,2.04,2.45,4.09,1.84,2.04-.61,6.95-3.27,6.95-3.27,0,0-.71-7.36,.2-11.86,.91-4.5,6.75-12.68,6.75-12.68l-7.57-4.5Z" style="fill:#fff; stroke:#263238; stroke-miterlimit:10;"></path><path d="M376.89,202.61s-2.59,2.59-3.74,6.9c-1.15,4.31-2.87,8.34-2.87,8.34,0,0,7.19-1.44,11.5-5.75,4.31-4.31-4.89-9.49-4.89-9.49Z" style="fill:#263238; stroke:#263238; stroke-miterlimit:10;"></path><g><path d="M385.08,181.48s-.89,.35-1.95,1.77c-1.06,1.42-1.77,2.12-2.48,2.12s-2.83-1.06-3.54-.18-1.77,.89-.18,3.01c1.59,2.12,3.54,4.07,3.54,4.07,0,0-.89,3.9,.53,5.67,1.42,1.77,10.45,1.77,11.15,1.59,.71-.18,1.77,.71,1.42-2.66s-8.5-15.4-8.5-15.4Z" style="fill:#263238; stroke:#263238; stroke-miterlimit:10;"></path><g><path d="M400.13,216.01s-3.54,4.43-4.6,5.13c-1.06,.71-6.2-1.06-6.2-1.06,0,0-4.96,3.19-6.73,2.48-1.77-.71-7.26-10.98-7.26-15.4s2.66-10.62,2.66-10.62c0,0-.18-4.96,2.12-6.73,2.3-1.77,4.25,.53,4.6,2.3,.35,1.77-1.77,4.96-.53,5.31,1.24,.35,6.55,0,6.55,0,0,0,5.84,15.93,9.38,18.59Z" style="fill:#fff; stroke:#263238; stroke-miterlimit:10;"></path><path d="M390.92,213s.18,3.36,3.54,3.72" style="fill:none; stroke:#263238; stroke-miterlimit:10;"></path><path d="M385.79,213.35s-.71,3.19,1.42,4.96" style="fill:none; stroke:#263238; stroke-miterlimit:10;"></path></g></g><g><path d="M389.32,171.81s-8,1.28-7.36,6.08,5.44,10.25,6.08,13.45c.64,3.2,3.2,14.41,4.8,18.57,1.6,4.16,1.92,6.08,6.08,8,4.16,1.92,11.21,4.16,12.81,1.92,1.6-2.24,1.6-10.57,1.6-10.57,0,0,7.68-7.36,8-17.93,.32-10.57-4.16-16.97-10.89-20.49-6.72-3.52-15.37-5.44-21.13,.96Z" style="fill:#fff; stroke:#263238; stroke-miterlimit:10;"></path><path d="M384.73,174.76s-1.77,2.3,.35,6.73c2.12,4.43,5.49,8.68,6.2,12.92,.71,4.25,1.24,10.27,5.13,13.1,3.89,2.83,11.15,5.13,14.16,4.25" style="fill:none; stroke:#263238; stroke-miterlimit:10;"></path><path d="M388.62,173.16s-1.77,3.72,.18,6.55c1.95,2.83,5.31,9.74,6.9,13.46,1.59,3.72,1.49,9.75,9.56,12.92" style="fill:none; stroke:#263238; stroke-miterlimit:10;"></path></g></g></g><g id="freepik--Character_1--inject-9"><g><g><g><path d="M157.75,169.47s4.32,9,9.36,11.88c5.04,2.88,34.19,6.12,34.19,6.12l5.4-26.63s-9.36,2.16-13.32,2.52c-3.96,.36-8.28,.36-8.28,.36l-27.35,5.76Z" style="fill:#a1a1a1; stroke:#263238; stroke-miterlimit:10;"></path><path d="M164.59,153.27s-3.6,1.44-5.76,3.6c-2.16,2.16-2.16,11.88-1.08,12.6,1.08,.72,12.24,6.12,14.04,6.12s11.16-3.6,12.6-5.76c1.44-2.16,3.6-8.28,1.44-11.88-2.16-3.6-18.72-7.56-21.24-4.68Z" style="fill:#fff; stroke:#263238; stroke-miterlimit:10;"></path><path d="M167.47,144.27s-7.56,16.56-4.68,21.24,8.64,5.4,12.96,2.88,6.12-7.2,6.84-8.64c.72-1.44,8.69-36.4,8.69-36.4,0,0,3.24-1.8,5.04-2.88,1.8-1.08,3.61-3.42,3.61-3.42,0,0,5.03-2.16,9.71-4.5,2.51-1.26-1.26-3.05-2.34-3.05s-4.86,1.61-4.86,1.61v-3.96s-9,0-12.6,.36c-3.6,.36-6.84-.36-9.36,2.16-2.52,2.52-3.6,13.68-3.6,13.68l-9.41,20.93Z" style="fill:#fff; stroke:#263238; stroke-miterlimit:10;"></path><path d="M207.29,109.49c-1.08,0-4.86,1.61-4.86,1.61v-3.96s-9,0-12.6,.36c-3.6,.36-6.84-.36-9.36,2.16-2.52,2.52-3.6,13.68-3.6,13.68l-.13,.47c2.82,1.41,7.69,3.34,13.91,3.91,.38-2.69,.61-4.38,.61-4.38,0,0,3.24-1.8,5.04-2.88,1.8-1.08,3.61-3.42,3.61-3.42,0,0,5.04-2.16,9.71-4.5,2.51-1.26-1.26-3.05-2.34-3.05Z" style="fill:#F58633; stroke:#263238; stroke-linecap:round; stroke-linejoin:round;"></path></g><path d="M180.48,109.67s3.62-5.39,4.88-6.47c1.26-1.08,6.83,.18,6.83,.18,0,0,4.5,5.57,3.24,6.47-1.26,.9-5.04-1.26-5.04-1.26l-4.32,.9" style="fill:#F58633; stroke:#263238; stroke-miterlimit:10;"></path><path d="M192.19,103.38s2.52-.9,3.42-.54c.9,.36,4.14,5.21,4.32,6.47,.18,1.26-2.16,1.08-2.16,1.08l-2.34-.54-3.24-6.47Z" style="fill:#F58633; stroke:#263238; stroke-miterlimit:10;"></path><path d="M195.6,102.84s2.52-.18,3.6,.54c1.08,.72,2.33,1.78,3.23,3.77,.9,1.99-2.51,2.17-2.51,2.17,0,0-1.26-2.7-1.8-3.6-.54-.9-2.52-2.88-2.52-2.88Z" style="fill:#F58633; stroke:#263238; stroke-miterlimit:10;"></path><path d="M199.2,103.38s3.06-.72,4.14,.36c1.08,1.08,2.7,3.96,1.8,4.68-.9,.72-2.7-1.27-2.7-1.27,0,0-2.33-3.95-3.23-3.77Z" style="fill:#F58633; stroke:#263238; stroke-miterlimit:10;"></path></g><g><g><polygon points="80.12 108.72 81.01 98.54 50.45 95.87 49.56 106.06 59.53 106.93 57.71 127.74 47.75 126.87 46.86 137.05 77.41 139.72 78.3 129.53 68.33 128.66 70.15 107.85 80.12 108.72" style="fill:#263238; stroke:#263238; stroke-miterlimit:10;"></polygon><polygon points="81.01 98.54 331.24 120.3 329.91 130.44 80.12 108.72 81.01 98.54" style="fill:#fff; stroke:#263238; stroke-miterlimit:10;"></polygon><rect x="183.7" y="3.75" width="20.89" height="250.74" transform="translate(48.62 311.28) rotate(-85.01)" style="fill:#fff; stroke:#263238; stroke-miterlimit:10;"></rect><rect x="197.64" y="20.12" width="10.22" height="250.74" transform="translate(40.17 334.8) rotate(-85.01)" style="fill:#fff; stroke:#263238; stroke-miterlimit:10;"></rect></g><g><path d="M82.41,118.33c-.09,.99-.96,1.73-1.95,1.64-.99-.09-1.73-.96-1.64-1.95,.09-.99,.96-1.73,1.95-1.64,.99,.09,1.73,.96,1.64,1.95Z" style="fill:none; stroke:#263238; stroke-miterlimit:10;"></path><path d="M99.92,119.86c-.09,.99-.96,1.73-1.95,1.64-.99-.09-1.73-.96-1.64-1.95,.09-.99,.96-1.73,1.95-1.64,.99,.09,1.73,.96,1.64,1.95Z" style="fill:none; stroke:#263238; stroke-miterlimit:10;"></path><path d="M117.44,121.39c-.09,.99-.96,1.73-1.95,1.64-.99-.09-1.73-.96-1.64-1.95s.96-1.73,1.95-1.64c.99,.09,1.73,.96,1.64,1.95Z" style="fill:none; stroke:#263238; stroke-miterlimit:10;"></path></g><g><path d="M274.6,135.12c-.09,.99-.96,1.73-1.95,1.64-.99-.09-1.73-.96-1.64-1.95,.09-.99,.96-1.73,1.95-1.64,.99,.09,1.73,.96,1.64,1.95Z" style="fill:none; stroke:#263238; stroke-miterlimit:10;"></path><path d="M292.12,136.65c-.09,.99-.96,1.73-1.95,1.64s-1.73-.96-1.64-1.95c.09-.99,.96-1.73,1.95-1.64,.99,.09,1.73,.96,1.64,1.95Z" style="fill:none; stroke:#263238; stroke-miterlimit:10;"></path><path d="M309.63,138.18c-.09,.99-.96,1.73-1.95,1.64-.99-.09-1.73-.96-1.64-1.95,.09-.99,.96-1.73,1.95-1.64,.99,.09,1.73,.96,1.64,1.95Z" style="fill:none; stroke:#263238; stroke-miterlimit:10;"></path></g></g><g><path d="M192.14,262.39s-12.38,24.02-14.2,38.58c-1.82,14.56-4.37,29.85-2.91,33.12,1.46,3.28,3.28,9.1,4.37,9.83,1.09,.73,18.2,33.12,19.65,34.58,1.46,1.46,4.37,5.82,4.37,5.82,0,0-1.09,3.64-.36,5.1,.73,1.46,3.64,5.46,3.64,5.46l5.1,5.46s7.64,1.09,10.56-2.18c2.91-3.28,4.37-8.74,4.37-10.19s1.46-2.91-1.46-6.55c-2.91-3.64-5.82-5.82-5.82-5.82,0,0-9.1-26.21-10.56-31.67-1.46-5.46-6.19-16.74-6.19-16.74l15.29-35.67,11.65-21.11-37.49-8.01Z" style="fill:#263238; stroke:#263238; stroke-miterlimit:10;"></path><g><path d="M206.7,394.87l3.3,8.08s2.34,0-3.51,4.49c-5.85,4.49-9.75,6.83-10.14,8.39-.39,1.56,.2,4.88,.78,5.66s.78,2.93,8.97,2.54c8.19-.39,12.87-4.68,16-7.41,3.12-2.73,5.85-6.24,5.85-6.24l.59,1.95s1.76-1.95,3.12-3.71c1.37-1.76,2.93-4.88,2.93-6.05s-4.68-6.63-5.85-9.56c-1.17-2.93-2.01-5.05-2.01-5.05,0,0-2.67,6.02-4.81,7.39s-4.1,2.34-4.1,2.34c0,0-1.76-3.12-6.44-3.51-4.68-.39-4.67,.7-4.67,.7Z" style="fill:#fff; stroke:#263238; stroke-miterlimit:10;"></path><path d="M233.25,400.1c-2.22,2.02-5.7,6.04-7.44,9.09-2.34,4.1-8.58,10.34-16.78,12.09-5.3,1.14-9.94-.5-12.56-1.8,.17,.9,.42,1.67,.66,2,.59,.78,.78,2.93,8.97,2.54,8.19-.39,12.87-4.68,16-7.41,3.12-2.73,5.85-6.24,5.85-6.24l.59,1.95s1.76-1.95,3.12-3.71c1.37-1.76,2.93-4.88,2.93-6.05,0-.4-.56-1.32-1.33-2.46Z" style="fill:#fff; stroke:#263238; stroke-miterlimit:10;"></path></g><path d="M216.53,271.85l9.83,101.55,.36,14.56s-2.18,5.46-1.09,8.37c1.09,2.91,4,8.37,4,8.37,0,0,6.92,7.28,10.19,5.46,3.28-1.82,8.01-7.28,8.01-7.28,0,0,4.73-6.19,4.73-9.83s-1.82-8.01-1.82-12.01v-23.66c0-3.64,.73-40.04,.73-40.04l5.1-51.32s-9.83-2.91-14.56-2.55-25.48,8.37-25.48,8.37Z" style="fill:#263238; stroke:#263238; stroke-miterlimit:10;"></path><g><path d="M225.63,396.33l.96,7.4s-2.54,7.02-4.1,9.56-5.66,4.49-8,5.85c-2.34,1.37-2.73,4.1-1.76,6.44,.98,2.34,1.95,3.51,5.66,4.49,3.71,.98,15.22,.39,19.12-1.95,3.9-2.34,7.22-4.68,7.22-4.68v1.76s1.37-.78,3.71-2.34c2.34-1.56,2.93-2.93,2.93-2.93,0,0-.2-9.17-.78-11.12-.59-1.95-.78-2.73-1.17-3.51-.39-.78,.98-8,.98-8,0,0-3.12,3.9-4.88,5.07-1.76,1.17-3.51,1.37-4.29,1.37s-.59-4.88-1.56-6.05c-.98-1.17-4.49-2.54-7.22-2.73-2.73-.2-6.81,1.37-6.81,1.37Z" style="fill:#fff; stroke:#263238; stroke-miterlimit:10;"></path><path d="M246.87,417.78c-1.76,1.95-8,7.22-18.92,9.17-6.93,1.24-12.28-.27-15.27-1.54,.02,.06,.04,.12,.06,.18,.98,2.34,1.95,3.51,5.66,4.49,3.71,.98,15.22,.39,19.12-1.95,3.9-2.34,7.22-4.68,7.22-4.68v1.76s1.37-.78,3.71-2.34c2.34-1.56,2.93-2.93,2.93-2.93,0,0-.09-4.01-.31-7.3-1.24,1.6-3.08,3.94-4.17,5.15Z" style="fill:#fff; stroke:#263238; stroke-miterlimit:10;"></path></g><path d="M191.78,250.01l-3.64,15.29,10.19,10.92,5.46-8.01,4,8.74s20.38,.73,29.12-2.55c8.74-3.28,14.92-6.55,14.92-6.55l7.64,5.46-1.46-16.74-66.24-6.55Z" style="fill:#fff; stroke:#263238; stroke-miterlimit:10;"></path><path d="M229.54,150.2s-24.19,7.04-25.82,9.57c-1.62,2.53-5.78,12.82-5.78,23.83s-4.15,41.17-4.33,44.05c-.18,2.89-4.51,28.53-4.51,28.53,0,0,8.49,1.99,10.65,3.07s3.61,1.26,3.61,1.26l2.53-4.15,1.08,4.69s12.1,2.35,29.07,1.26,22.39-3.07,22.39-3.07l9.93-66.26s5.6-14.08,2.17-25.1c-3.43-11.01-11.92-14.62-16.43-15.71-4.51-1.08-8.67-2.17-8.67-2.17l-15.89,.18Z" style="fill:#F58633; stroke:#263238; stroke-linecap:round; stroke-linejoin:round;"></path><g><polygon points="223.4 152.54 216.36 158.5 216.9 167.71 219.79 162.29 224.49 168.79 223.4 152.54" style="fill:#fff; stroke:#263238; stroke-linecap:round; stroke-linejoin:round;"></polygon><path d="M221.05,145.68l3.25,20.58,19.86-19.14-1.81-6.68s-7.94,6.14-11.19,7.58-10.11-2.35-10.11-2.35Z" style="fill:#fff; stroke:#263238; stroke-linecap:round; stroke-linejoin:round;"></path><g><g><path d="M211.67,114.81s2.17-9.75,5.96-14.26c3.79-4.51,15.17-6.5,21.67-4.15,6.5,2.35,11.37,9.03,12.28,14.62,.9,5.6,1.08,7.4,1.62,8.67,.54,1.26,1.26,2.35,1.26,2.35l-43.33-5.6,.54-1.62Z" style="fill:#fff; stroke:#263238; stroke-miterlimit:10;"></path><path d="M214.37,114.81s-12.1-.72-9.39,1.08c2.71,1.81,3.25,2.71,14.08,4.51s23.65,4.87,23.65,4.87c0,0,5.24,4.33,10.29,2.89s5.96-3.07,3.07-5.78c-2.89-2.71-41.71-7.58-41.71-7.58Z" style="fill:#c4c4c4; stroke:#263238; stroke-miterlimit:10;"></path><path d="M230.44,99.82s1.44-2.71,3.97-3.61c2.53-.9,4.87,.18,4.87,.18,0,0-9.93-6.68-16.97,1.62" style="fill:#fff; stroke:#263238; stroke-miterlimit:10;"></path></g><path d="M215.03,118.82s-.47,16.93,.61,20.54c1.08,3.61,6.86,10.29,8.67,10.83,1.81,.54,5.06,1.44,6.86,.9,1.81-.54,8.67-5.42,10.29-6.86,1.62-1.44,3.25-5.78,3.25-6.86s.72-3.25,.72-3.25c0,0,2.35-.36,3.25-1.62,.9-1.26,.9-3.43,.18-4.33-.72-.9-1.62-1.44-1.62-1.44l.18-3.25-32.39-4.65Z" style="fill:#fff; stroke:#263238; stroke-linecap:round; stroke-linejoin:round;"></path><path d="M221.6,127.45s0,3.79-.18,4.69c-.18,.9-1.62,2.35-.9,3.25,.72,.9,2.71,1.99,5.24,.9" style="fill:none; stroke:#263238; stroke-linecap:round; stroke-linejoin:round;"></path><path d="M221.42,139.72s1.81,1.08,4.87,.36c3.07-.72,4.87-2.17,4.87-2.17" style="fill:none; stroke:#263238; stroke-linecap:round; stroke-linejoin:round;"></path><path d="M210.22,120.04s-.36,4.51,1.08,6.86c1.44,2.35,3.61,2.89,6.14,2.53s4.33-3.25,6.5-2.35c2.17,.9,1.62,3.97,8.12,3.97s7.22-7.4,7.22-7.4l-29.07-3.61Z" style="fill:none; stroke:#263238; stroke-linecap:round; stroke-linejoin:round;"></path><path d="M238.03,122.21s1.62,7.22,3.79,7.58c2.17,.36,5.42-3.07,5.42-3.07l.18-3.25-9.39-1.26Z" style="fill:#263238; stroke:#263238; stroke-linecap:round; stroke-linejoin:round;"></path><path d="M229.38,125.37c0,1-.55,1.81-1.23,1.81s-1.23-.81-1.23-1.81,.55-1.81,1.23-1.81,1.23,.81,1.23,1.81Z" style="fill:#263238;"></path><path d="M220.12,124.22c0,1-.55,1.81-1.23,1.81s-1.23-.81-1.23-1.81,.55-1.81,1.23-1.81,1.23,.81,1.23,1.81Z" style="fill:#263238;"></path></g><polygon points="223.22 159.4 224.49 168.79 247.78 150.38 245.07 144.6 223.22 159.4" style="fill:#fff; stroke:#263238; stroke-linecap:round; stroke-linejoin:round;"></polygon></g><g><path d="M196.77,200.2c-.34,3.31-.72,6.71-1.09,9.95,9.3,.76,26.28,2.43,40.52,5.39,12.25,2.55,21.78,6.67,27.36,9.5l1.56-10.38c-6.3-2.95-15.49-6.53-26.88-8.9-14.77-3.08-31.89-4.78-41.47-5.56Z" style="fill:#fff; stroke:#263238; stroke-miterlimit:10;"></path><path d="M260.37,246.29l1.5-10.03c-19.92,.75-56.66-2.72-68.89-3.95-.42,2.75-.99,6.34-1.57,9.9,10.7,1.1,42.46,4.15,64.26,4.15,1.63,0,3.19-.02,4.7-.06Z" style="fill:#fff; stroke:#263238; stroke-miterlimit:10;"></path></g><g><path d="M262.97,188.01s6.44-4.89,7.11-10.44c.67-5.55-.44-13.99-7.33-18.21-6.88-4.22-15.54,2.22-16.88,4.44-1.33,2.22-7.77,10.21-7.77,10.21l-2.89,2.89-2.44,.44-9.1-3.33-11.55,14.21s18.43,21.09,25.09,21.32c6.66,.22,17.76-12.43,19.1-13.99,1.33-1.55,6.66-7.55,6.66-7.55Z" style="fill:#a1a1a1; stroke:#263238; stroke-miterlimit:10;"></path><path d="M232.77,177.35s8.22,3.55,11.77,5.55c3.55,2,7.11,6,7.11,6" style="fill:none; stroke:#263238; stroke-miterlimit:10;"></path><path d="M244.99,180.01s8.22,.89,10.44,4.66" style="fill:none; stroke:#263238; stroke-miterlimit:10;"></path><path d="M239.88,178.68s3.11-1.33,8.22-1.11" style="fill:none; stroke:#263238; stroke-miterlimit:10;"></path></g><g><path d="M218.34,170.02l-25.31-27.09-3.33-8.66s-3.77-4.66-6-6.66-4-3.55-4.44-2l-.44,1.55s-3.33-2-4.66-2-2.44,.44-1.11,1.78,2.89,4,2.89,4l1.11,1.78s-3.77-2.89-6.88-3.55c-3.11-.67-4.44,.67-3.11,2,1.33,1.33,4.22,3.33,4.22,3.33l3.55,4.22s-5.33-1.78-7.11-2.22c-1.78-.44-2.22,2-.44,3.11,1.78,1.11,8.44,3.77,8.44,3.77,0,0,3.11,5.77,6.22,7.33,3.11,1.55,5.77,3.77,5.77,3.77l20.87,30.86,9.77-15.32Z" style="fill:#fff; stroke:#263238; stroke-miterlimit:10;"></path><g><path d="M193.03,142.93l-3.33-8.66s-3.77-4.66-6-6.66-4-3.55-4.44-2l-.44,1.55s-3.33-2-4.66-2-2.44,.44-1.11,1.78,2.89,4,2.89,4l1.11,1.78s-3.77-2.89-6.88-3.55c-3.11-.67-4.44,.67-3.11,2,1.33,1.33,4.22,3.33,4.22,3.33l3.55,4.22s-5.33-1.78-7.11-2.22c-1.78-.44-2.22,2-.44,3.11,1.78,1.11,8.44,3.77,8.44,3.77,0,0,3.11,5.77,6.22,7.33,3.11,1.55,5.77,3.77,5.77,3.77l.75,1.11,8.89-8.04-4.31-4.61Z" style="fill:#F58633; stroke:#263238; stroke-miterlimit:10;"></path><path d="M178.82,127.16s3.55,3.55,4.44,4.22,1.33,1.78,1.33,1.78" style="fill:none; stroke:#263238; stroke-miterlimit:10;"></path><line x1="177.04" y1="132.72" x2="179.93" y2="136.05" style="fill:none; stroke:#263238; stroke-miterlimit:10;"></line></g></g><polygon points="219.23 166.91 204.57 183.34 212.12 192.67 226.33 172.24 219.23 166.91" style="fill:#fff; stroke:#263238; stroke-miterlimit:10;"></polygon></g></g></g></svg>
